<svg xmlns="http://www.w3.org/2000/svg" width="61" height="24" fill="none">
  <path fill="#fff" d="m52.975 11.04 3.6-4.152h4.176l-4.632 5.256 4.344 6.432h-3.72l-2.856-4.152-.912 1.08v3.072H49.88V1.224h3.096v9.816Z"/>
  <path fill="#787CFE" d="m52.975 11.04 3.6-4.152h4.176l-4.632 5.256 4.344 6.432h-3.72l-2.856-4.152-.912 1.08v3.072H49.88V1.224h3.096v9.816Z"/>
  <path fill="#fff" d="M41.98 6.888h3.072v1.68c.384-.544.88-.968 1.488-1.272.624-.304 1.224-.44 1.8-.408v2.784c-.656-.032-1.232.112-1.728.432-.496.304-.88.712-1.152 1.224a3.292 3.292 0 0 0-.408 1.56v5.688H41.98V6.888Z"/>
  <path fill="#787CFE" d="M41.98 6.888h3.072v1.68c.384-.544.88-.968 1.488-1.272.624-.304 1.224-.44 1.8-.408v2.784c-.656-.032-1.232.112-1.728.432-.496.304-.88.712-1.152 1.224a3.292 3.292 0 0 0-.408 1.56v5.688H41.98V6.888Z"/>
  <path fill="#fff" d="M33.784 18.648c-1.072 0-2.016-.248-2.832-.744a5.372 5.372 0 0 1-1.92-2.088c-.448-.896-.672-1.912-.672-3.048 0-1.136.224-2.144.672-3.024.464-.896 1.104-1.592 1.92-2.088.816-.496 1.76-.744 2.832-.744.576 0 1.152.128 1.728.384a3.79 3.79 0 0 1 1.464 1.152v-1.56h3.096v11.688h-3.096v-1.464c-.4.528-.888.912-1.464 1.152a4.224 4.224 0 0 1-1.728.384Zm.36-2.568c.784 0 1.448-.312 1.992-.936.56-.64.848-1.432.864-2.376-.016-.944-.304-1.728-.864-2.352-.544-.64-1.208-.96-1.992-.96-.832 0-1.488.296-1.968.888-.48.592-.72 1.4-.72 2.424s.24 1.832.72 2.424c.48.592 1.136.888 1.968.888Z"/>
  <path fill="#787CFE" d="M33.784 18.648c-1.072 0-2.016-.248-2.832-.744a5.372 5.372 0 0 1-1.92-2.088c-.448-.896-.672-1.912-.672-3.048 0-1.136.224-2.144.672-3.024.464-.896 1.104-1.592 1.92-2.088.816-.496 1.76-.744 2.832-.744.576 0 1.152.128 1.728.384a3.79 3.79 0 0 1 1.464 1.152v-1.56h3.096v11.688h-3.096v-1.464c-.4.528-.888.912-1.464 1.152a4.224 4.224 0 0 1-1.728.384Zm.36-2.568c.784 0 1.448-.312 1.992-.936.56-.64.848-1.432.864-2.376-.016-.944-.304-1.728-.864-2.352-.544-.64-1.208-.96-1.992-.96-.832 0-1.488.296-1.968.888-.48.592-.72 1.4-.72 2.424s.24 1.832.72 2.424c.48.592 1.136.888 1.968.888Z"/>
  <path fill="#fff" d="M21.58 16.032c.833 0 1.489-.296 1.969-.888.48-.592.72-1.4.72-2.424s-.24-1.832-.72-2.424c-.48-.608-1.136-.912-1.968-.912-.528 0-1.016.152-1.464.456a3.038 3.038 0 0 0-1.032 1.2c-.256.496-.384 1.056-.384 1.68 0 .608.128 1.168.384 1.68s.6.912 1.032 1.2c.448.288.936.432 1.464.432Zm.337-9.192c1.072 0 2.016.248 2.832.744a4.95 4.95 0 0 1 1.92 2.088c.464.896.696 1.912.696 3.048 0 1.136-.232 2.152-.696 3.048a4.95 4.95 0 0 1-1.92 2.088c-.816.496-1.76.744-2.832.744-.464 0-1.008-.12-1.632-.36-.624-.256-1.152-.68-1.584-1.272v6.624h-3.096V6.864H18.7v1.608a3.77 3.77 0 0 1 1.608-1.224c.64-.272 1.176-.408 1.608-.408Z"/>
  <path fill="#787CFE" d="M21.58 16.032c.833 0 1.489-.296 1.969-.888.48-.592.72-1.4.72-2.424s-.24-1.832-.72-2.424c-.48-.608-1.136-.912-1.968-.912-.528 0-1.016.152-1.464.456a3.038 3.038 0 0 0-1.032 1.2c-.256.496-.384 1.056-.384 1.68 0 .608.128 1.168.384 1.68s.6.912 1.032 1.2c.448.288.936.432 1.464.432Zm.337-9.192c1.072 0 2.016.248 2.832.744a4.95 4.95 0 0 1 1.92 2.088c.464.896.696 1.912.696 3.048 0 1.136-.232 2.152-.696 3.048a4.95 4.95 0 0 1-1.92 2.088c-.816.496-1.76.744-2.832.744-.464 0-1.008-.12-1.632-.36-.624-.256-1.152-.68-1.584-1.272v6.624h-3.096V6.864H18.7v1.608a3.77 3.77 0 0 1 1.608-1.224c.64-.272 1.176-.408 1.608-.408Z"/>
  <path fill="#fff" d="M3.36 13.176c.544 1.024 1.144 1.768 1.8 2.232.656.464 1.328.696 2.016.696 1.088 0 1.904-.224 2.448-.672.56-.464.84-1.088.84-1.872 0-.48-.152-.888-.456-1.224a3.407 3.407 0 0 0-1.152-.816c-.448-.224-1.08-.48-1.896-.768-1.12-.4-2.04-.784-2.76-1.152a5.617 5.617 0 0 1-1.824-1.608c-.496-.704-.744-1.608-.744-2.712 0-.992.248-1.856.744-2.592S3.56 1.392 4.44 1.008c.88-.4 1.888-.6 3.024-.6 1.184 0 2.312.352 3.384 1.056 1.072.704 1.872 1.768 2.4 3.192l-2.736.984c-.352-.912-.792-1.568-1.32-1.968-.528-.4-1.088-.608-1.68-.624-.864 0-1.544.208-2.04.624-.496.416-.744.952-.744 1.608 0 .48.152.896.456 1.248.32.336.712.616 1.176.84.464.224 1.104.496 1.92.816 1.104.432 2.008.84 2.712 1.224a5.144 5.144 0 0 1 1.8 1.584c.496.688.744 1.552.744 2.592 0 1.008-.256 1.904-.768 2.688-.512.784-1.248 1.392-2.208 1.824-.944.432-2.056.648-3.336.648A6.531 6.531 0 0 1 3.6 17.688c-1.072-.72-1.992-1.744-2.76-3.072l2.52-1.44Z"/>
  <path fill="#787CFE" d="M3.36 13.176c.544 1.024 1.144 1.768 1.8 2.232.656.464 1.328.696 2.016.696 1.088 0 1.904-.224 2.448-.672.56-.464.84-1.088.84-1.872 0-.48-.152-.888-.456-1.224a3.407 3.407 0 0 0-1.152-.816c-.448-.224-1.08-.48-1.896-.768-1.12-.4-2.04-.784-2.76-1.152a5.617 5.617 0 0 1-1.824-1.608c-.496-.704-.744-1.608-.744-2.712 0-.992.248-1.856.744-2.592S3.56 1.392 4.44 1.008c.88-.4 1.888-.6 3.024-.6 1.184 0 2.312.352 3.384 1.056 1.072.704 1.872 1.768 2.4 3.192l-2.736.984c-.352-.912-.792-1.568-1.32-1.968-.528-.4-1.088-.608-1.68-.624-.864 0-1.544.208-2.04.624-.496.416-.744.952-.744 1.608 0 .48.152.896.456 1.248.32.336.712.616 1.176.84.464.224 1.104.496 1.92.816 1.104.432 2.008.84 2.712 1.224a5.144 5.144 0 0 1 1.8 1.584c.496.688.744 1.552.744 2.592 0 1.008-.256 1.904-.768 2.688-.512.784-1.248 1.392-2.208 1.824-.944.432-2.056.648-3.336.648A6.531 6.531 0 0 1 3.6 17.688c-1.072-.72-1.992-1.744-2.76-3.072l2.52-1.44Z"/>
</svg>
